# xmcd CD database file
#
# Track frame offsets:
#	150
#	47325
#	88950
#	129750
#	169950
#
# Disc length: 2675 seconds
#
# Revision: 0
# Processed by: cddbd v1.5.2PL0 Copyright (c) Steve Scherf et al.
# Submitted via: CDex 1.81
#
DISCID=370a7105
DTITLE=Minim Experiment - Dark Matter
DYEAR=2016
DGENRE=Jazz
TTITLE0=Pale Blue Dot
TTITLE1=Scythe Dance
TTITLE2=Great Dark Spot
TTITLE3=Between
TTITLE4=Minim (Epilogue)
EXTD=YEAR: 2016
EXTT0=
EXTT1=
EXTT2=
EXTT3=
EXTT4=
PLAYORDER=
